<svg xmlns="http://www.w3.org/2000/svg" viewBox="0 0 64 64">
  <rect width="64" height="64" rx="16" fill="#06090B"/>
  <defs>
    <linearGradient id="g" x1="12" y1="10" x2="52" y2="52" gradientUnits="userSpaceOnUse">
      <stop offset="0%" stop-color="#00D68F"/>
      <stop offset="50%" stop-color="#7C6AFF"/>
      <stop offset="100%" stop-color="#FF6B4A"/>
    </linearGradient>
  </defs>
  <g transform="translate(8 8)" fill="none" stroke="url(#g)" stroke-linecap="round" stroke-linejoin="round">
    <path opacity=".4" stroke-width="1.8" d="M24 2C36 2 44 10 44 22.5 44 35.1 35.7 43.5 23.4 43.5 11.1 43.5 4 35.8 4 23.5 4 11.3 11.9 2 24 2Z"/>
    <path opacity=".75" stroke-width="2.2" d="M34.7 12.8c-3-3.1-6.8-4.7-11.4-4.7-7.4 0-12.4 3.7-12.4 9 0 5.8 5.1 7.2 12.6 8.2 5.1.7 7.6 1.8 7.6 4.6 0 3.4-3.5 5.7-8.5 5.7-4.6 0-8.5-1.4-11.5-4.4"/>
    <path stroke-width="2.7" d="M31.4 16.3c-2.1-1.9-4.8-2.8-8-2.8-4.3 0-7 1.6-7 3.8 0 2.5 2.7 3.2 7.5 3.9 8.5 1.2 12.8 3.6 12.8 9 0 1.5-.3 2.9-.9 4.1"/>
    <circle cx="37.6" cy="9.5" r="2.4" fill="#00D68F" stroke="none"/>
  </g>
</svg>
